<svg width="73" height="69" viewBox="0 0 52 48" fill="none" xmlns="http://www.w3.org/2000/svg">
<path d="M24.5278 2.09735C25.4813 1.76727 26.5186 1.76727 27.4721 2.09735L46.2797 8.60712C48.4951 9.374 49.7511 11.714 49.1655 13.9841L43.1655 37.2429C42.8142 38.6049 41.8463 39.7241 40.5493 40.2682L27.7407 45.6432C26.6273 46.1102 25.3725 46.1103 24.2592 45.6432L11.4506 40.2682C10.1536 39.7241 9.18574 38.6049 8.83441 37.2429L2.83441 13.9841C2.24887 11.7139 3.50469 9.37401 5.72016 8.60712L24.5278 2.09735Z" stroke="#3396D3" stroke-width="3"/>
<path d="M18.5746 36C17.2348 36 16.0385 35.1265 15.6405 33.8443L10.1064 16.0163C9.64169 14.5194 10.7578 13 12.322 13C13.3704 13 14.2886 13.7045 14.5621 14.7188L18.6257 29.7874C18.6439 29.8549 18.7051 29.9019 18.7749 29.9019C18.8438 29.9019 18.9044 29.8562 18.9235 29.7898L23.1363 15.1593C23.5046 13.8805 24.6724 13 26.0006 13C27.3282 13 28.4957 13.8798 28.8644 15.1579L33.0904 29.807C33.1086 29.8699 33.166 29.9131 33.2312 29.9131C33.2974 29.9131 33.3554 29.8687 33.3727 29.8046L37.4381 14.719C37.7115 13.7046 38.6296 13 39.6781 13C41.2422 13 42.3582 14.5193 41.8937 16.0161L36.3594 33.8443C35.9615 35.1265 34.7661 36 33.4261 36C32.0898 36 30.8967 35.1309 30.4957 33.8533L26.1346 19.9563C26.117 19.9001 26.065 19.8618 26.0061 19.8618C25.9473 19.8618 25.8953 19.9 25.8776 19.9562L21.5052 33.8555C21.1036 35.132 19.9102 36 18.5746 36Z" fill="#3396D3"/>
<path d="M25.0825 31.6897C25.4138 30.7701 26.5862 30.7701 26.9175 31.6897L27.9284 34.4955C28.188 35.2161 27.7099 36 27.0109 36H24.9891C24.2901 36 23.812 35.2161 24.0716 34.4955L25.0825 31.6897Z" fill="#3396D3"/>
<path d="M27 32H25L26 29L27 32Z" fill="#3396D3"/>
</svg>
